<svg xmlns="http://www.w3.org/2000/svg" viewBox="0 0 500 500"><g id="freepik--background-complete--inject-51"><path d="M416.1,313.15l13.35-.27,6.58-.12c2.19,0,4.37,0,6.55-.05l-.45.44L442.08,302l.5.49-13.24-.06c-4.42,0-8.83-.11-13.24-.16l.27-.27c0,1.83-.09,3.67-.13,5.53Zm0,0-.15-5.53c0-1.87-.11-3.76-.13-5.65v-.27h.28c4.41-.05,8.82-.16,13.24-.16l13.24-.06h.5V302L443,313.15v.45h-.44c-2.23,0-4.47,0-6.7-.05l-6.66-.12Z" style="fill:#ebebeb"></path><path d="M430.87,327.26l13.35-.27,6.58-.12c2.19,0,4.37,0,6.55-.05l-.45.44,0-11.18.5.49-13.24-.06c-4.41,0-8.83-.11-13.24-.16l.27-.27c0,1.83-.08,3.67-.13,5.53Zm0,0-.14-5.53c-.05-1.87-.12-3.76-.13-5.65v-.27h.28c4.41-.05,8.83-.16,13.24-.16l13.24-.06h.5v.51l-.06,11.18v.45h-.44c-2.23,0-4.47,0-6.7,0l-6.66-.12Z" style="fill:#ebebeb"></path><path d="M237.18,121l13.35-.28,6.58-.11c2.19,0,4.36,0,6.55-.06l-.45.45,0-11.19.5.5-13.24-.06c-4.42,0-8.83-.12-13.24-.17l.27-.27c0,1.83-.09,3.67-.13,5.54Zm0,0-.15-5.54c0-1.86-.11-3.75-.13-5.65v-.27h.28c4.41-.06,8.82-.16,13.24-.17l13.24-.06h.5v.5L264.1,121v.45h-.44c-2.24,0-4.47,0-6.7-.05l-6.66-.11Z" style="fill:#ebebeb"></path><path d="M252,135.07l13.35-.28,6.58-.11c2.19-.05,4.37,0,6.55-.06l-.45.45-.05-11.19.5.5-13.24-.06c-4.42,0-8.83-.12-13.24-.17l.27-.27c0,1.83-.09,3.67-.13,5.53Zm0,0-.15-5.54c0-1.86-.11-3.75-.13-5.65v-.27H252c4.41-.06,8.82-.16,13.24-.17l13.24-.06h.5v.5l-.06,11.19v.45h-.44c-2.23,0-4.47,0-6.7,0l-6.66-.11Z" style="fill:#ebebeb"></path><path d="M266.66,121l13.36-.28,6.58-.11c2.18,0,4.36,0,6.54-.06l-.44.45-.06-11.19.5.5-13.24-.06c-4.41,0-8.83-.12-13.24-.17l.27-.27c0,1.83-.08,3.67-.13,5.54Zm0,0-.14-5.54c0-1.86-.11-3.75-.13-5.65v-.27h.28c4.41-.06,8.83-.16,13.24-.17l13.24-.06h.5v.5L293.59,121v.45h-.44c-2.23,0-4.47,0-6.69-.05l-6.66-.11Z" style="fill:#ebebeb"></path><path d="M52.33,332.53l13.36-.28,6.58-.12c2.19,0,4.36,0,6.54-.05l-.44.44-.06-11.18.5.49-13.24-.06c-4.41,0-8.82-.11-13.24-.16l.28-.27c0,1.83-.09,3.67-.14,5.53Zm0,0L52.19,327c0-1.87-.11-3.76-.13-5.65v-.27h.27c4.42-.05,8.83-.16,13.24-.16l13.24-.06h.5v.51l0,11.18V333h-.45c-2.23,0-4.47,0-6.69-.05l-6.66-.12Z" style="fill:#ebebeb"></path><path d="M57.42,72.8l13.36-.28,6.58-.11c2.19,0,4.36,0,6.54-.06l-.44.45L83.4,61.61l.5.5L70.66,62c-4.41,0-8.82-.11-13.24-.16l.28-.27c0,1.83-.09,3.67-.14,5.53Zm0,0-.14-5.54c0-1.87-.11-3.75-.13-5.65v-.27h.27c4.42,0,8.83-.15,13.24-.16l13.24-.06h.51v.5L84.35,72.8v.45H83.9c-2.23,0-4.47,0-6.69,0l-6.66-.11Z" style="fill:#ebebeb"></path><path d="M42.65,86.91,56,86.63l6.58-.11c2.18,0,4.36,0,6.54-.06l-.44.45-.06-11.19.5.5-13.24-.07c-4.41,0-8.83-.11-13.24-.16l.27-.27c0,1.83-.08,3.67-.13,5.53Zm0,0-.14-5.54c0-1.87-.11-3.75-.13-5.65v-.27h.27c4.41,0,8.83-.15,13.24-.16l13.24-.06h.5v.5l0,11.19v.45h-.45c-2.23,0-4.47,0-6.69,0l-6.66-.11Z" style="fill:#ebebeb"></path><path d="M409.8,72.8l13.35-.28,6.58-.11c2.19,0,4.36,0,6.55-.06l-.45.45-.05-11.19.5.5L423,62c-4.42,0-8.83-.11-13.24-.16l.27-.27c0,1.83-.09,3.67-.13,5.53Zm0,0-.15-5.54c0-1.87-.11-3.75-.13-5.65v-.27h.28c4.41,0,8.82-.15,13.24-.16l13.24-.06h.5v.5l-.06,11.19v.45h-.44c-2.24,0-4.47,0-6.7,0l-6.66-.11Z" style="fill:#ebebeb"></path><rect x="76.62" y="271.33" width="92.34" height="171.73" transform="translate(245.57 714.38) rotate(180)" style="fill:#ebebeb"></rect><rect x="72.14" y="266.58" width="101.28" height="4.74" transform="translate(245.57 537.91) rotate(180)" style="fill:#dbdbdb"></rect><rect x="40.29" y="266.58" width="31.85" height="4.74" transform="translate(112.43 537.91) rotate(180)" style="fill:#ebebeb"></rect><rect x="45.33" y="271.33" width="31.28" height="171.73" transform="translate(121.95 714.38) rotate(180)" style="fill:#dbdbdb"></rect><path d="M159,381.92H86.55V341H159Zm-72.22-.25h72V341.2h-72Z" style="fill:#c7c7c7"></path><rect x="118.79" y="352.93" width="14.11" height="8.11" transform="translate(251.69 713.97) rotate(180)" style="fill:#c7c7c7"></rect><path d="M128.85,360.55H114.5v-7.13h14.35Zm-14.1-.25H128.6v-6.63H114.75Z" style="fill:#c7c7c7"></path><path d="M159,433.36H86.55v-41H159Zm-72.22-.25h72V392.64h-72Z" style="fill:#c7c7c7"></path><rect x="118.79" y="404.37" width="14.11" height="8.11" transform="translate(251.69 816.85) rotate(180)" style="fill:#c7c7c7"></rect><path d="M128.85,412H114.5v-7.13h14.35Zm-14.1-.25H128.6v-6.63H114.75Z" style="fill:#c7c7c7"></path><rect x="86.67" y="289.63" width="72.22" height="40.72" transform="translate(245.57 619.98) rotate(180)" style="fill:#a6a6a6"></rect><rect x="93.71" y="279.2" width="54.98" height="39.85" style="fill:#c7c7c7"></rect><polygon points="129.26 275.08 148.69 275.08 148.69 279.2 128.15 279.2 129.26 275.08" style="fill:#c7c7c7"></polygon><polygon points="93.85 319.06 148.83 319.06 153.07 282.51 98.09 282.51 93.85 319.06" style="fill:#a6a6a6"></polygon><polygon points="134.09 278.73 153.51 278.73 153.07 282.51 132.53 282.51 134.09 278.73" style="fill:#a6a6a6"></polygon><rect x="121.47" y="289.63" width="72.22" height="40.72" transform="translate(315.16 619.98) rotate(180)" style="fill:#ebebeb"></rect><path d="M193.81,330.48H121.34v-41h72.47Zm-72.22-.25h72V289.76h-72Z" style="fill:#c7c7c7"></path><rect x="153.58" y="301.49" width="14.11" height="8.11" transform="translate(321.27 611.08) rotate(180)" style="fill:#c7c7c7"></rect><path d="M163.65,309.11H149.29V302h14.36Zm-14.11-.25H163.4v-6.64H149.54Z" style="fill:#c7c7c7"></path><rect x="86.67" y="295.73" width="34.62" height="34.62" transform="translate(207.96 626.08) rotate(180)" style="fill:#dbdbdb"></rect><path d="M328.8,47v180.1H445.86V47ZM441.54,222.73H333.12V51.27H441.54Z" style="fill:#ebebeb"></path><rect x="333.12" y="51.27" width="108.42" height="171.46" style="fill:#fff"></rect><rect x="333.12" y="134.84" width="108.42" height="4.32" transform="translate(774.67 274) rotate(180)" style="fill:#ebebeb"></rect><rect x="320.85" y="227.05" width="132.97" height="12.4" transform="translate(774.67 466.49) rotate(180)" style="fill:#dbdbdb"></rect><polygon points="324.37 244.4 450.29 247.04 450.29 239.44 324.37 239.44 324.37 244.4" style="fill:#ebebeb"></polygon><path d="M333.12,51.27H441.54V162.2H333.12Zm104.42,4H337.12V158.2H437.54Z" style="fill:#dbdbdb"></path><rect x="404.78" y="51.27" width="2.16" height="106.93" style="fill:#dbdbdb"></rect><rect x="367.73" y="51.27" width="2.16" height="106.93" style="fill:#dbdbdb"></rect><path d="M54.14,47v180.1H171.2V47ZM166.88,222.73H58.46V51.27H166.88Z" style="fill:#ebebeb"></path><rect x="58.46" y="51.27" width="108.42" height="171.46" style="fill:#fff"></rect><rect x="58.46" y="134.84" width="108.42" height="4.32" transform="translate(225.33 274) rotate(180)" style="fill:#ebebeb"></rect><rect x="46.18" y="227.05" width="132.97" height="12.4" transform="translate(225.33 466.49) rotate(180)" style="fill:#dbdbdb"></rect><polygon points="49.71 244.4 175.63 247.04 175.63 239.44 49.71 239.44 49.71 244.4" style="fill:#ebebeb"></polygon><path d="M58.46,51.27H166.88V162.2H58.46Zm104.42,4H62.46V158.2H162.88Z" style="fill:#dbdbdb"></path><rect x="130.11" y="51.27" width="2.16" height="106.93" style="fill:#dbdbdb"></rect><rect x="93.06" y="51.27" width="2.16" height="106.93" style="fill:#dbdbdb"></rect></g><g id="freepik--Floor--inject-51"><polygon points="40.29 443.06 92.72 442.81 145.14 442.73 250 442.56 354.86 442.73 407.28 442.81 459.71 443.06 407.28 443.3 354.86 443.39 250 443.56 145.14 443.39 92.72 443.3 40.29 443.06" style="fill:#263238"></polygon></g><g id="freepik--Plant--inject-51"><path d="M99.63,343.8a79.83,79.83,0,0,0-1.87-13.14c-.92-3.89-2.24-7.87-4.69-11.08a14.07,14.07,0,0,0-9.21-5.74c-3.6-.44-7,1.17-9.68,3.44-3.34,2.81-5.9,6.54-8.3,10.15A123.5,123.5,0,0,0,58.71,340c-.08.14.14.26.21.12a78.2,78.2,0,0,1,6.42-10.5,65.16,65.16,0,0,1,7.38-8.94c2.47-2.42,5.62-4.68,9.2-4.79a11.29,11.29,0,0,1,9,4.64c2.4,3.07,3.62,6.91,4.54,10.65a81.36,81.36,0,0,1,1.85,12.51c.7,8.66.89,17.37,1.09,26.05q.16,7.36.22,14.74l.06,7.47a45.51,45.51,0,0,0,.29,7.2c.08.48.87.44,1,0a42.08,42.08,0,0,0,.33-6.83l.09-7.08q.06-6.87.05-13.76C100.37,362.23,100.26,353,99.63,343.8Z" style="fill:#263238"></path><path d="M71.38,321.08c-.78.31.28-8.91-3.35-10.09-5.14-1.67-16.92,1.34-23.46,10.09A19.39,19.39,0,0,0,41.73,327c3.24-1.57,14-6.53,16.65-5,2.45,1.38-12.91,6.2-17.64,9.3a36.63,36.63,0,0,0-.43,3.87c2.77-1.9,10.3-6.84,13.67-6.84,3.74,0-8.67,6.57-13.69,11.28a39.51,39.51,0,0,0,2.9,13.31c1.28-2.44,4.12-7.17,7.77-9.73,5.07-3.54,7.3,2.16.91,6.67-3.41,2.4-5.87,4.39-7.42,5.73a26.3,26.3,0,0,0,5.68,7.35,20.85,20.85,0,0,1,8.34-5.7c1.23-.43,3.25-1,5.69-1.81a52.37,52.37,0,0,0,1.73-9.46c.14-3.75,4.59-1.67,2.78,5-.34,1.25-.65,2.29-.94,3.15a25.5,25.5,0,0,0,5.43-2.66,50.84,50.84,0,0,0-1-12c-1.11-5.91,3.38-6.32,4.36,1.11.45,3.43-.2,7-.42,9.31,5.08-3,9.3-9,9.3-9a22.54,22.54,0,0,0-3.52-9.31c-2.5-3.77.2-5.26,2.71-1.85,1.39,1.9,2.22,5.09,2.68,7.54C92.63,319.36,86,315.2,71.38,321.08ZM47,340.71c-1.38-2,3.41-5.7,4.45-4.44C52.79,337.87,48.39,342.72,47,340.71Zm32.05-8.26c-2,1.41-3.81-3.25-2.55-4.05S80.7,331.25,79.05,332.45Z" style="fill:#103337"></path><path d="M74.59,329.83c-.66-1.31-1.35-2.6-2.1-3.86a22.72,22.72,0,0,0-2.42-3.5c.21-.25.41-.52.63-.77.09-.1-.06-.24-.15-.14-.25.28-.48.56-.72.85a.18.18,0,0,0-.1.12c-.9,1.08-1.75,2.19-2.57,3.33a37.28,37.28,0,0,0-4.24,1.23c-1.43.48-2.85,1-4.24,1.56-.15.07-.08.31.07.24,1.38-.61,2.78-1.2,4.21-1.68s2.73-.81,4.1-1.2c-.45.63-.89,1.26-1.31,1.91a49.78,49.78,0,0,0-7.5,3.06c-2.53,1.2-5,2.6-7.4,4-.14.08,0,.29.13.21a80,80,0,0,1,7.36-3.81c2.35-1.1,4.78-2,7.15-3.05-6,9.31-9.54,20.05-14.33,30-.06.14.16.26.22.12,1.46-3.49,3.14-6.89,4.73-10.32,1.43-3.08,2.83-6.18,4.25-9.26q.63-1.35,1.29-2.7c-.26,5-.15,10-1,14.95a.12.12,0,1,0,.24,0c.35-5.31,1.29-10.54,1.25-15.89,0,0,0,0,0-.06q1.52-3.06,3.25-6c2,4.65,4.06,9.38,5,14.37,0,.16.28.09.24-.07-1.35-5-2.59-10-5-14.65a55,55,0,0,1,4.2-6.06c.66,1.24,1.51,2.41,2.26,3.59s1.46,2.32,2.14,3.51A50.25,50.25,0,0,1,78,337.78c0,.15.29.08.23-.07C77.05,335.06,75.89,332.4,74.59,329.83Z" style="fill:#263238"></path><path d="M121.62,341.15c-3.83-3.84-8.28-8.88-14.2-8.87-5.71,0-9.91,4.6-12.33,9.35-2.52,5-3.43,10.58-4.14,16a194.21,194.21,0,0,0-1.52,19.72c-.1,3.66-.08,7.33,0,11a73.54,73.54,0,0,0,.83,11.09c.11.59,1.06.61,1.09,0,.18-3.08,0-6.18,0-9.26s0-6.08.14-9.12c.22-6.14.67-12.28,1.39-18.39.63-5.33,1.13-10.81,2.73-16,1.44-4.64,4.14-10,8.85-12,6.43-2.78,12.71,2.3,16.91,6.6C121.54,341.42,121.73,341.26,121.62,341.15Z" style="fill:#263238"></path><path d="M133.27,347.15c-5.14-.52-3.72-3.31.95-2.09a21.25,21.25,0,0,1,7,3.35,30.35,30.35,0,0,0-2.07-12.16c-4.29-1.08-8.18.81-12.18,2.69s-6.68-3-2-5.33a14.91,14.91,0,0,1,12.69-.23c-.37-.64-.74-1.24-1.14-1.8a21.4,21.4,0,0,0-3.92-4.33c-3.5.28-5.44,2.44-6.48,3.12-1.47,1-3.79-.17-2.32-2.26,1.15-1.65,4-2.4,6.38-2.59-4.22-2.49-8.43-2.5-10.82-1.41-4.13,1.88-3,12.78-3,12.78s-10.85-5.8-14.4-1.24A13.61,13.61,0,0,0,99.73,341c3.84-1.41,8.56-1.76,9,.55s-6,1.71-9.39,2.1c-.41,4.86.72,10.54,4.6,14.55,3.29-6.33,10.62-11.14,11.66-7.65s-6.82,4.38-10,9.11a21,21,0,0,0,4.51,2.52c1.76-2.64,4.69-6.27,6.1-5.17s-2.28,3.68-4.67,5.74a67.64,67.64,0,0,0,10.44,2.88c.87-3.66,2.55-7.07,4.15-6.75s-1.51,4.13-2.86,7a103.91,103.91,0,0,0,14.36,1.81c.3-.07,2.27-5.84,3.15-13a20.77,20.77,0,0,0-7.45-1.49c-3.63-.17-4-4.3,1.46-3.73a13.94,13.94,0,0,1,6.27,2.6c0-.76.1-1.53.13-2.32h0A20.36,20.36,0,0,0,133.27,347.15Zm-1.35-5.65c.55-1.23,3.86-.8,3.54.72S131.46,342.55,131.92,341.5Zm-27.16,10.25c-.2-1,2-2,2.33-1.14S105,353.13,104.76,351.75Zm15.62,8.47c-1.77-.92.76-4.94,2.37-4.3C124.08,356.45,122.14,361.14,120.38,360.22Z" style="fill:#103337"></path><path d="M137,366.87c-2.44-4.08-4.85-8.17-7.41-12.17-1.19-1.86-2.44-3.69-3.73-5.48l.58-.14c.32-.07.64-.13,1-.18.75-.13,1.5-.24,2.26-.32s1.42-.11,2.14-.12a10.87,10.87,0,0,1,2.28.12c.09,0,.11-.12,0-.12-.76,0-1.54-.07-2.3-.08s-1.48,0-2.22.05a20.65,20.65,0,0,0-2.08.22c-.38.06-.75.12-1.13.2a5.63,5.63,0,0,0-.69.14q-2-2.72-4.1-5.33a48.65,48.65,0,0,1,13.34-4.26c.07,0,0-.13,0-.12a45.3,45.3,0,0,0-13.53,4.1L119,340.53c-.88-1.06-1.82-2.1-2.62-3.22,0-.08-.16,0-.1.07a45.65,45.65,0,0,1,3.1,3.79h0a48.55,48.55,0,0,0-5,4q-2.43,2.16-4.73,4.45c-.06.06,0,.15.08.09q2.28-2.26,4.74-4.32c1.65-1.37,3.38-2.62,5-4,0,0,0,0,0,0,.38.5.75,1,1.13,1.49l.58.75,0,.05,1.89,2.48a20.13,20.13,0,0,0-1.88,3.4c-.55,1.15-1,2.34-1.46,3.53a50.6,50.6,0,0,0-2,7.64c0,.07.1.11.12,0a44.56,44.56,0,0,1,2.21-7.48c.48-1.25,1-2.46,1.57-3.67s1.12-2.16,1.59-3.28c.55.73,1.1,1.46,1.63,2.19l.46.65c0,.05,0,.11.05.11h0c1.67,2.34,3.26,4.73,4.81,7.15a2.44,2.44,0,0,0-.21.53c-.1.29-.19.59-.28.89-.17.6-.31,1.2-.42,1.81s-.19,1.16-.25,1.74a16.16,16.16,0,0,1-.14,2c0,.1.13.1.12,0a6.35,6.35,0,0,1,.13-1.84c.09-.63.21-1.25.35-1.87s.29-1.12.45-1.67c.09-.28.17-.55.27-.82s.12-.3.17-.45c.72,1.13,1.44,2.28,2.15,3.43,1.4,2.27,2.79,4.56,4.19,6.84C136.84,367.08,137,367,137,366.87Z" style="fill:#263238"></path><path d="M99.38,398.15c-.07-2.31-.43-4.63-.68-6.93s-.51-4.61-.76-6.92A105.16,105.16,0,0,0,96.16,371a19.38,19.38,0,0,0-5.43-10,8.85,8.85,0,0,0-5.33-2.54,9.21,9.21,0,0,0-5.66,1.74,19.69,19.69,0,0,0-4.75,5,48.44,48.44,0,0,0-3.71,6c0,.08.08.13.13.06a30.66,30.66,0,0,1,8-9,9.47,9.47,0,0,1,5.06-2.11,6.82,6.82,0,0,1,4.9,2c2.69,2.34,4.25,5.78,5.18,9.16a91.55,91.55,0,0,1,2,12.33c.33,2.45.64,4.89,1,7.33s.53,4.92,1,7.32A.41.41,0,0,0,99.38,398.15Z" style="fill:#263238"></path><path d="M85,363.44c-5.3-.1-10.92,3.85-10.92,3.85s3-10.32-5.31-10c-4.93.19-11.09,5.36-12.32,13.43,1.9-1,5.91-2.95,9.08-3,4.3-.08,4.59,3.29-1.34,3.8a37.63,37.63,0,0,0-7.95,1.31,22.22,22.22,0,0,0,1,7.46c3.31-2,9-4.15,9.12-1.38.13,2.06-5.71,2.23-8.59,2.95a35.22,35.22,0,0,0,5,8.8,79,79,0,0,0,12-2.69,21.89,21.89,0,0,0-.37-4.32c-.7-3.69,2-3.75,2.36-.21a13,13,0,0,1-.25,3.94,35.38,35.38,0,0,0,7.67-3.61,23.67,23.67,0,0,0-1.7-8.16c-1.06-2.88,1-4.53,2.8-1.22,1.14,2.13.68,6.13.3,8.39A12.67,12.67,0,0,0,88,380.22C93.69,372.33,90.33,363.56,85,363.44Zm-22.87,1.91c.19-1.49,3.89-1.21,3.71-.05S61.94,367,62.16,365.35ZM58,377.47c.36-1,2-.82,1.88-.06S57.79,378.1,58,377.47Zm22,5.2c-2.15.09-1.44-4.38-.19-4.55C80.89,378,81.66,382.6,80,382.67Z" style="fill:#103337"></path><path d="M78.1,383.08c-.21-.56-.39-1.12-.57-1.69a17.37,17.37,0,0,1,.41,1.73A.08.08,0,1,0,78.1,383.08Z" style="fill:#263238"></path><path d="M75.91,375.9c-.39-1.15-.83-2.28-1.27-3.41-.24-.6-.49-1.19-.75-1.78a7.22,7.22,0,0,0-.74-1.5,11.08,11.08,0,0,0,.67-1.45,0,0,0,0,0-.07,0,17,17,0,0,0-1.62,2.5c-.23.39-.45.79-.67,1.19a11,11,0,0,0-1.4.21c-.5.09-1,.2-1.49.31l-1.47.34c-.49.12-1,.28-1.47.35a.08.08,0,1,0,0,.16,9,9,0,0,1,1.55-.4c.48-.11,1-.19,1.43-.26l1.45-.18c.37,0,.74-.05,1.1-.09-.2.35-.4.69-.59,1l-.09.16a4.78,4.78,0,0,0-1.19.14c-.43.08-.86.16-1.29.26-.86.19-1.72.39-2.58.63-1.79.5-3.56,1.07-5.33,1.65a.08.08,0,1,0,.06.15,51.85,51.85,0,0,1,5.36-1.49l2.55-.56,1.28-.27a8.79,8.79,0,0,0,1-.22c-.92,1.69-1.78,3.4-2.56,5.15-1.72,3.8-3.17,7.72-4.65,11.63,0,.1.12.16.15.06a107,107,0,0,1,4.94-11.37c.33-.67.67-1.35,1-2l.09.41.24,1.39c.16.92.31,1.85.45,2.78a32.92,32.92,0,0,1,.67,5.76c0,.12.18.11.16,0-.15-.92-.15-1.88-.21-2.81s-.13-1.94-.24-2.9-.23-1.87-.38-2.79c-.08-.46-.16-.93-.25-1.39a2.64,2.64,0,0,0-.26-1L71,373.33c.46-.92.93-1.82,1.4-2.73.2-.38.42-.77.63-1.16a14,14,0,0,0,.55,1.4c.22.52.43,1,.65,1.57.47,1.15.91,2.32,1.36,3.49.62,1.66,1.32,3.36,1.83,5.09C76.91,379.29,76.48,377.57,75.91,375.9Z" style="fill:#263238"></path><path d="M77.53,381.39l-.12-.4Z" style="fill:#263238"></path><polygon points="113.25 393.66 112.66 406.01 111.16 437.83 78.33 437.83 76.83 406.01 76.24 393.66 113.25 393.66" style="fill:#37474f"></polygon><polygon points="113.25 393.66 112.66 406.01 76.83 406.01 76.24 393.66 113.25 393.66" style="fill:#263238"></polygon><rect x="73.91" y="388.67" width="41.67" height="9.98" style="fill:#37474f"></rect><rect x="80.99" y="437.83" width="5.76" height="5.23" style="fill:#37474f"></rect><rect x="80.99" y="437.83" width="5.76" height="2.61" style="fill:#263238"></rect><rect x="102.74" y="437.83" width="5.76" height="5.23" style="fill:#37474f"></rect><rect x="102.74" y="437.83" width="5.76" height="2.61" style="fill:#263238"></rect></g><g id="freepik--Character--inject-51"><path d="M237.62,442.69c-2.45.79-72.19-.1-74.82-1.82-1-.63-1.47-10.8-1.68-23.11v-.38c-.05-2.54-.08-5.15-.09-7.79,0-.37,0-.73,0-1.1l3.38-36.17,46.65.45-4.6,35.84,0,1.42-.28,7.42,0,.76s26.54,12.28,29.24,14.48S240.06,441.91,237.62,442.69Z" style="fill:#ffc4c0"></path><path d="M237.62,442.69c-2.45.79-72.19-.1-74.82-1.82-1-.63-1.47-10.8-1.68-23.11v-.38c-.05-2.54-.08-5.15-.09-7.79,0-.37,0-.73,0-1.1l45.43.12,0,1.42-.28,7.42,0,.76s26.54,12.28,29.24,14.48S240.06,441.91,237.62,442.69Z" style="fill:#ebebeb"></path><path d="M237.62,442.69c-1.26.4-20.2.36-38.72,0-3.72-.08-7.43-.16-11-.26-13.2-.36-24.12-.9-25.13-1.56s-1.46-10.52-1.67-22.59c0-.18,0-.35,0-.52s0-.26,0-.39h0l45,.07,0,.77s26.55,12.27,29.24,14.47S240.07,441.91,237.62,442.69Z" style="fill:#103337"></path><path d="M236.86,440c-11.75-.44-59.19-1.1-70.84-.64-.09,0-.1.07,0,.07,11.64.69,59.08,1,70.84.76C237.11,440.17,237.11,440,236.86,440Z" style="fill:#263238"></path><path d="M211.12,417.64c-4.61-.92-10.28-.28-13.86,3-.13.12.05.32.2.27a65.06,65.06,0,0,1,13.64-2.66A.29.29,0,0,0,211.12,417.64Z" style="fill:#263238"></path><path d="M214.44,419.7c-4.62-.93-10.29-.29-13.86,3-.14.13,0,.32.19.28a65.19,65.19,0,0,1,13.64-2.66A.29.29,0,0,0,214.44,419.7Z" style="fill:#263238"></path><path d="M217.75,421.75c-4.62-.92-10.28-.28-13.86,3-.14.12,0,.32.19.27a65.31,65.31,0,0,1,13.64-2.66A.29.29,0,0,0,217.75,421.75Z" style="fill:#263238"></path><path d="M198.9,442.69c-3.72-.08-7.43-.16-11-.26-13.2-.36-24.12-.9-25.13-1.56s-1.46-10.52-1.67-22.59c0-.18,0-.35,0-.52s0-.26,0-.39h0C167.33,421.69,189,436.13,198.9,442.69Z" style="opacity:0.1"></path><path d="M208.8,417.6H158.58s9.42-118,9-120c-.5-2.62-3.47-14.5-7.42-30-1.24-4.85-2.58-10.06-4-15.45-3.75-14.6-7.88-30.54-11.48-44.42-5.4-20.79-9.62-31.51-9.62-31.51h42.56s35,100.19,36.39,120.89C215.29,315.14,208.8,417.6,208.8,417.6Z" style="fill:#263238"></path><path d="M206.58,409c-7.67-.15-5.47-.22-13.14-.29-3.76,0-28.43-.24-31.93.34a.08.08,0,0,0,0,.15c3.5.58,28.17.36,31.93.33,7.67-.08,5.47-.14,13.14-.3C206.72,409.26,206.72,409,206.58,409Z" style="fill:#37474f"></path><path d="M177.06,290.43c-1.65-7.26-4.11-14.38-6.26-21.5q-6.53-21.72-13.14-43.41c-2.2-7.24-12.42-34.3-13.42-37.89-.42-1.46-.64-.66-.11,1.2,1.06,3.74,18.51,57.39,22.92,72.09q3.31,11,6.65,22.1a89.51,89.51,0,0,1,2.72,10.69,49.12,49.12,0,0,1,.44,11.43c-.48,7.69-1.36,15.36-2.07,23l-2.13,23.05c-1.41,15.28-2.16,31.23-3.54,46.53-.17,1.93-.34,3.87-.49,5.81,0,.65.93.6,1,0,1.65-15.12,2.26-31,3.67-46.09l4.23-45.2c.35-3.78.75-7.57.75-11.38A47.12,47.12,0,0,0,177.06,290.43Z" style="fill:#37474f"></path><path d="M172.86,176.21c-3,22.86-8.57,60.29-12.67,91.38-9.61-37.67-25.06-91.38-25.06-91.38Z" style="fill:#37474f"></path><path d="M185,442.72c-2.45.79-72.18.16-74.82-1.55-1-.64-1.52-10.8-1.77-23.1v-.39c-.06-2.53-.1-5.15-.12-7.79,0-.37,0-.73,0-1.09-.17-17.76,1.11-36.18,1.11-36.18l45.58.29-1.26,35.84,0,1.42-.25,7.42,0,.76s26.59,12.18,29.29,14.37S187.46,441.93,185,442.72Z" style="fill:#ffc4c0"></path><path d="M185,442.72c-2.45.79-72.18.16-74.82-1.55-1-.64-1.52-10.8-1.77-23.1v-.39c-.06-2.53-.1-5.15-.12-7.79,0-.37,0-.73,0-1.09l45.43-.05,0,1.42-.25,7.42,0,.76s26.59,12.18,29.29,14.37S187.46,441.93,185,442.72Z" style="fill:#ebebeb"></path><path d="M185,442.72c-2.45.79-72.18.16-74.82-1.55-1-.64-1.52-10.8-1.77-23.1v-.39l45-.09,0,.76s26.59,12.18,29.29,14.37S187.46,441.93,185,442.72Z" style="fill:#103337"></path><path d="M184.25,440c-11.75-.39-59.19-.88-70.84-.38-.1,0-.1.07,0,.08,11.64.64,59.08.75,70.84.5C184.5,440.19,184.5,440,184.25,440Z" style="fill:#263238"></path><path d="M158.43,417.76c-4.62-.9-10.28-.25-13.85,3-.13.12,0,.32.2.27a65.83,65.83,0,0,1,13.63-2.71A.29.29,0,0,0,158.43,417.76Z" style="fill:#263238"></path><path d="M161.75,419.8c-4.62-.9-10.28-.24-13.84,3-.14.13,0,.32.19.28a64.55,64.55,0,0,1,13.63-2.71A.3.3,0,0,0,161.75,419.8Z" style="fill:#263238"></path><path d="M165.07,421.85c-4.61-.91-10.28-.25-13.84,3-.14.13,0,.32.19.28a65.18,65.18,0,0,1,13.63-2.71A.29.29,0,0,0,165.07,421.85Z" style="fill:#263238"></path><path d="M177.4,176.21a164.21,164.21,0,0,1-5.63,31c-.37,1.34-.78,2.65-1.22,3.91,0,0-3.76,1.76-11.18,6.31,0,0-.48,16.38-1,34.66-.54,20.43-1.1,43.21-1,48,.43,18.09-2.24,117.51-2.24,117.51L105,417.9s9-111,9-117.65c-.1-10.65,2.42-57.71,4.36-92,1.19-21.15,2.17-32,2.17-32Z" style="fill:#263238"></path><path d="M153.46,408.76c-7.67-.13-5.47-.2-13.14-.24-3.75,0-28.42-.12-31.93.47-.07,0-.07.15,0,.16,3.51.57,28.18.24,31.94.19,7.67-.11,5.46-.16,13.13-.36A.11.11,0,1,0,153.46,408.76Z" style="fill:#37474f"></path><path d="M124.71,183.49c-.92,28-1.89,50.6-3.14,78.6s-2.93,56.19-5.28,84.22C115,362,113.75,384,112.06,399.62c0,.11.15.14.16,0,3.65-27.79,5.68-62.16,7.48-90.12s3-56,4-84c.53-15.84.94-26.25,1.41-42.09C125.07,183.25,124.72,183.27,124.71,183.49Z" style="fill:#37474f"></path><path d="M126.64,201.7c1.24-.32,2.56-.42,3.82-.62,1-.16,2-.34,3-.56a13.28,13.28,0,0,0,5.36-2.26c2.51-2,5.38-11.88,5.73-12.51.6-1.08.78-.13.78,0,0,1.15-2.63,9.84-3.65,11.46-1.86,3-5.19,4.16-8.52,4.58-1,.12-1.92.19-2.88.24a20.13,20.13,0,0,1-3.64,0A.17.17,0,0,1,126.64,201.7Z" style="fill:#37474f"></path><path d="M170.39,211.41A89.88,89.88,0,0,0,156.25,218a.16.16,0,0,0,.13.3c4.76-2,9.62-4,14.27-6.31A.31.31,0,0,0,170.39,211.41Z" style="fill:#37474f"></path><path d="M171.83,178.78c0-.17-.31-.2-.31,0,0,5.66-.32,10.64-.79,15.92-.23,2.46-2.2,16-6.46,15-.71-.17-1.07-.87-1.18-1.94a16.93,16.93,0,0,1,.56-4.16c.47-2.84.85-5.69,1.1-8.56a77.48,77.48,0,0,0-.18-16,.14.14,0,0,0-.27,0,146.32,146.32,0,0,1-1.3,22.14c-.53,3.53-2.3,8.84,1.38,9.38s6.19-8.34,6.65-10.77A81.52,81.52,0,0,0,171.83,178.78Z" style="fill:#37474f"></path><path d="M164.39,210.06a21.65,21.65,0,0,0-1,2.81,6.57,6.57,0,0,0-.4,2.31.17.17,0,0,0,.3.07,8.24,8.24,0,0,0,1-2.25c.32-.87.66-1.73,1-2.61A.47.47,0,0,0,164.39,210.06Z" style="fill:#37474f"></path><path d="M162.8,117c15,19.33,30.51,34.86,35.85,36.17,8.28,2,42-7.87,51.88-12.92,3.22-1.66-6.3-24.39-10.09-25.14s-38.76,12.12-41.13,12.07c-1.26,0-16.51-9.31-28.71-16.68C159.27,103.69,158.25,111.17,162.8,117Z" style="fill:#ffc4c0"></path><path d="M240.66,144c3.21-.55,17.71-4.34,21.51-6.3s14.32-8.39,13.12-11.45-4.44-1.43-4.44-1.43,4-3.42,2.52-6.39-6.44-.26-6.44-.26,3.87-3.81,2.17-6.67-6.22.7-6.22.7,3.7-3.32,1.31-5.08c-2.88-2.12-9,4.77-13.36,6.62-1,.42-20.66,7.07-20.66,7.07Z" style="fill:#ffc4c0"></path><path d="M263.28,111.87c-4.52,5-7.37,6.48-13.79,8.32-.12,0-.1.23,0,.2,6.44-1.22,10.28-2.5,14-8.32C263.71,111.79,263.49,111.62,263.28,111.87Z" style="fill:#263238"></path><path d="M267.29,117.72c-5.15,4.84-8.23,6.42-14.81,8.84-.09,0,0,.2.05.17,6.65-1.83,10.45-3.2,15-8.71C267.69,117.77,267.52,117.5,267.29,117.72Z" style="fill:#263238"></path><path d="M270.51,124.89c-5.32,4.33-8.62,6.21-15.31,7.74a.12.12,0,1,0,0,.24c7-.89,11.11-3.2,15.39-7.8C270.92,124.76,270.85,124.62,270.51,124.89Z" style="fill:#263238"></path><path d="M227,124.45s3.7-7.65,6.07-10.65,15.31-10.92,17.18-8.22c2.42,3.48-4.15,9.53-7.76,12.07,0,0,5.6,8,1.82,13.41S227,124.45,227,124.45Z" style="fill:#ffc4c0"></path><path d="M250.6,106.75c-.09,4.77-5,7.8-8.35,10.52a.4.4,0,0,0,0,.65c2.12,3.53,4.08,9.13,2.3,13.1a.1.1,0,0,0,.17.09c2.49-4,1-9.65-1.56-13.37,3.44-2.74,8.27-6,7.46-11C250.64,106.72,250.6,106.72,250.6,106.75Z" style="fill:#263238"></path><path d="M239.41,145.93,227.76,117s-25.45,7.93-28.65,8.65c-1.36.3-20.73-11.67-30.33-17.52-6.31-3.85-13.64-2-6.2,10.15,4.35,7.14,28,35.38,36.36,36.82C205.58,156.26,239.41,145.93,239.41,145.93Z" style="fill:#455a64"></path><path d="M192,124.21a1.63,1.63,0,0,1-.66.43,1.39,1.39,0,0,1-1.36-.23,1.84,1.84,0,0,0-2.07-.09,1.74,1.74,0,0,0-.67.74c-.14.29-.3.54-.41.83.25-.18.46-.4.7-.6a1.9,1.9,0,0,1,.65-.46,1.4,1.4,0,0,1,1.36.18,1.83,1.83,0,0,0,2.05.16,1.71,1.71,0,0,0,.7-.74c.13-.27.29-.53.41-.83C192.48,123.8,192.26,124,192,124.21Zm-17.35-7.27c-.1-.29-.17-.59-.29-.88,0,.31,0,.62-.07.93a1.88,1.88,0,0,1-.13.78,1.38,1.38,0,0,1-1.09.83,1.87,1.87,0,0,0-1.57,1.34,1.76,1.76,0,0,0,0,1c.1.29.17.59.29.87.05-.31.05-.61.07-.92a1.75,1.75,0,0,1,.16-.78,1.46,1.46,0,0,1,1.12-.79,1.84,1.84,0,0,0,1.54-1.4A1.77,1.77,0,0,0,174.68,116.94Zm10.56,20.21c-.1-.29-.17-.59-.29-.88,0,.31,0,.62-.07.93a1.88,1.88,0,0,1-.13.78,1.38,1.38,0,0,1-1.09.83,1.87,1.87,0,0,0-1.57,1.34,1.76,1.76,0,0,0,0,1c.1.29.17.59.29.87.05-.31.05-.61.07-.92a1.75,1.75,0,0,1,.16-.78,1.46,1.46,0,0,1,1.12-.79,1.84,1.84,0,0,0,1.54-1.4A1.77,1.77,0,0,0,185.24,137.15Zm35.29,1.71a1.66,1.66,0,0,1-.66.44,1.39,1.39,0,0,1-1.36-.24,1.88,1.88,0,0,0-2.07-.09,1.92,1.92,0,0,0-.68.75c-.13.28-.29.54-.41.83.26-.18.47-.4.71-.6a1.91,1.91,0,0,1,.64-.47,1.42,1.42,0,0,1,1.36.19,1.87,1.87,0,0,0,2.06.16,1.77,1.77,0,0,0,.7-.74c.13-.27.29-.54.41-.83A8.43,8.43,0,0,0,220.53,138.86Zm11.16-12.08c0,.19,0,.37,0,.56a1.78,1.78,0,0,1-.13.79,1.45,1.45,0,0,1-1.08.83,1.83,1.83,0,0,0-1.57,1.34,1.73,1.73,0,0,0,0,1c.1.29.18.58.3.88,0-.31,0-.61.07-.93a1.86,1.86,0,0,1,.15-.77,1.42,1.42,0,0,1,1.14-.79,1.89,1.89,0,0,0,1.53-1.4,1.23,1.23,0,0,0,0-.47Zm-28.5,12.6c-.1-.3-.18-.6-.3-.88,0,.31,0,.61-.07.92a1.78,1.78,0,0,1-.13.79,1.45,1.45,0,0,1-1.08.83,1.84,1.84,0,0,0-1.57,1.34,1.73,1.73,0,0,0,0,1c.11.29.18.59.3.88,0-.31,0-.61.07-.92a1.75,1.75,0,0,1,.16-.78,1.39,1.39,0,0,1,1.13-.79,1.87,1.87,0,0,0,1.53-1.4A1.84,1.84,0,0,0,203.19,139.38Zm31,6.55c-.1-.29-.18-.6-.3-.88,0,.31,0,.61-.07.92a1.78,1.78,0,0,1-.13.79,1.43,1.43,0,0,1-1.08.83,1.86,1.86,0,0,0-1.24.69c.93-.25,1.8-.5,2.6-.73a1.74,1.74,0,0,0,.28-.62A1.84,1.84,0,0,0,234.19,145.93Zm-23.28-19.08a1.68,1.68,0,0,1-.77-.16,1.4,1.4,0,0,1-.8-1.13A1.85,1.85,0,0,0,208,124a1.92,1.92,0,0,0-1,.06c-.29.1-.58.18-.87.3.31,0,.62,0,.92.06a1.81,1.81,0,0,1,.78.14,1.38,1.38,0,0,1,.84,1.08,1.86,1.86,0,0,0,1.34,1.57,1.76,1.76,0,0,0,1,0c.29-.1.58-.17.87-.3C211.52,126.87,211.21,126.87,210.91,126.85ZM160.7,113.36a1.8,1.8,0,0,1-.6-.09c.05.17.12.35.19.53a2.21,2.21,0,0,0,.46-.08c.29-.1.58-.17.87-.3C161.31,113.38,161,113.39,160.7,113.36Z" style="fill:#263238"></path><path d="M233.22,146.21c-1.16-1.93-4.55-10.6-5.37-12.77s-3.82-11-4.66-13.2c0-.12.12-.22.17-.1.86,2.19,4.56,10.78,5.4,12.94s4.12,10.84,4.57,13.08A.06.06,0,0,1,233.22,146.21Z" style="fill:#263238"></path><path d="M207.92,154.2c-4,.79-7.34,1.21-9,.93-8.35-1.44-32-29.69-36.36-36.82s-3.67-10.57-1.19-11.62Z" style="fill:#020100;opacity:0.1"></path><path d="M119.42,176.18c.12.17,59.36,8.5,60,8a41.37,41.37,0,0,0,.78-5s4.57-4.26,3.54-12.22c-2.17-16.85-8.2-52.44-11-56.27-2.42-3.34-9.86-5.82-15-3.72-10.73,4.39-32.26,44.15-37.56,53.54-2.62,4.63.57,8.26.81,10.64A44.37,44.37,0,0,0,119.42,176.18Z" style="fill:#455a64"></path><path d="M165.91,180.31a1.54,1.54,0,0,1-.65.43,1.41,1.41,0,0,1-1.36-.23,1.86,1.86,0,0,0-2.08-.1,1.84,1.84,0,0,0-.66.76,8.72,8.72,0,0,0-.4.81s0,0,0,0l0,0,.68-.59a1.63,1.63,0,0,1,.65-.46,1.41,1.41,0,0,1,1.35.17,1.85,1.85,0,0,0,2.06.17,1.74,1.74,0,0,0,.69-.74c.14-.28.3-.54.42-.82C166.37,179.89,166.15,180.11,165.91,180.31Zm8.46-29.42a1.57,1.57,0,0,1-.65.44,1.41,1.41,0,0,1-1.36-.24,1.82,1.82,0,0,0-2.74.66c-.14.28-.29.54-.41.83.25-.18.46-.4.69-.6a1.88,1.88,0,0,1,.66-.47,1.38,1.38,0,0,1,1.35.19,1.89,1.89,0,0,0,2.06.16,1.77,1.77,0,0,0,.7-.74c.13-.27.29-.54.41-.83C174.82,150.48,174.61,150.69,174.37,150.89Zm-32.91,7.84a1.78,1.78,0,0,1-.66.44,1.42,1.42,0,0,1-1.36-.24,1.84,1.84,0,0,0-2.07-.09,1.74,1.74,0,0,0-.67.74,9.3,9.3,0,0,0-.41.84c.25-.19.46-.41.7-.61a1.9,1.9,0,0,1,.65-.46,1.4,1.4,0,0,1,1.36.18,1.83,1.83,0,0,0,2.05.16,1.75,1.75,0,0,0,.7-.73c.13-.28.29-.54.41-.84C141.91,158.32,141.69,158.53,141.46,158.73Zm12.1-34.07a1.63,1.63,0,0,1-.66.43,1.39,1.39,0,0,1-1.36-.23,1.84,1.84,0,0,0-2.07-.09,1.74,1.74,0,0,0-.67.74c-.14.29-.3.54-.41.83.25-.18.46-.4.7-.6a1.9,1.9,0,0,1,.65-.46,1.4,1.4,0,0,1,1.36.18,1.83,1.83,0,0,0,2.05.16,1.71,1.71,0,0,0,.7-.74c.13-.27.29-.53.41-.83C154,124.25,153.79,124.46,153.56,124.66Zm-4.6,47.7c-.1-.3-.18-.6-.3-.88,0,.31,0,.61-.07.92a1.78,1.78,0,0,1-.13.79,1.45,1.45,0,0,1-1.08.83,1.83,1.83,0,0,0-1.57,1.34,1.73,1.73,0,0,0,0,1c.1.29.18.58.3.88,0-.31,0-.61.07-.93a1.86,1.86,0,0,1,.15-.77,1.42,1.42,0,0,1,1.14-.79,1.89,1.89,0,0,0,1.53-1.4A1.84,1.84,0,0,0,149,172.36Zm25.72-55.42c-.1-.29-.17-.59-.29-.88,0,.31,0,.62-.07.93a1.88,1.88,0,0,1-.13.78,1.38,1.38,0,0,1-1.09.83,1.87,1.87,0,0,0-1.57,1.34,1.76,1.76,0,0,0,0,1c.1.29.17.59.29.87.05-.31.05-.61.07-.92a1.75,1.75,0,0,1,.16-.78,1.46,1.46,0,0,1,1.12-.79,1.84,1.84,0,0,0,1.54-1.4A1.77,1.77,0,0,0,174.68,116.94ZM155.26,142c-.1-.3-.18-.59-.3-.88-.05.31,0,.62-.07.92a1.62,1.62,0,0,1-.13.79,1.45,1.45,0,0,1-1.09.84A1.86,1.86,0,0,0,152.1,145a1.76,1.76,0,0,0,0,1c.1.29.17.58.29.88,0-.31,0-.62.07-.93a1.56,1.56,0,0,1,.16-.77,1.4,1.4,0,0,1,1.12-.8,1.83,1.83,0,0,0,1.53-1.39A2,2,0,0,0,155.26,142Zm15.49-7.1a1.68,1.68,0,0,1-.77-.15,1.43,1.43,0,0,1-.8-1.13,1.88,1.88,0,0,0-1.39-1.54,1.92,1.92,0,0,0-1,.07c-.29.1-.58.17-.87.29a7.22,7.22,0,0,0,.92.06,1.81,1.81,0,0,1,.78.14,1.35,1.35,0,0,1,.83,1.09,1.89,1.89,0,0,0,1.35,1.57,1.85,1.85,0,0,0,1,0c.29-.1.58-.17.87-.3C171.36,134.92,171.05,134.93,170.75,134.9Zm-42.9,37a1.68,1.68,0,0,1-.77-.16,1.4,1.4,0,0,1-.8-1.13,1.85,1.85,0,0,0-1.39-1.53,1.92,1.92,0,0,0-1,.06c-.29.1-.58.18-.87.3.31,0,.62,0,.92.06a1.81,1.81,0,0,1,.78.14,1.38,1.38,0,0,1,.84,1.08,1.86,1.86,0,0,0,1.34,1.57,1.76,1.76,0,0,0,1,0c.29-.1.58-.17.87-.3C128.46,171.93,128.15,171.93,127.85,171.91Zm34.07-8.62a1.68,1.68,0,0,1-.77-.16,1.4,1.4,0,0,1-.8-1.13,1.85,1.85,0,0,0-1.39-1.53,1.93,1.93,0,0,0-1,.06c-.29.1-.58.17-.87.3.31,0,.62,0,.92.06a1.72,1.72,0,0,1,.79.14,1.39,1.39,0,0,1,.83,1.08,1.86,1.86,0,0,0,1.35,1.57,1.73,1.73,0,0,0,1,0c.29-.1.58-.17.88-.3C162.53,163.31,162.22,163.31,161.92,163.29ZM138.3,139.62a1.56,1.56,0,0,1-.77-.15,1.42,1.42,0,0,1-.8-1.12,1.85,1.85,0,0,0-1.39-1.54,1.79,1.79,0,0,0-1,.06l-.62.2a1.84,1.84,0,0,0-.25.09l.18,0c.25,0,.49,0,.74,0a1.58,1.58,0,0,1,.78.14,1.39,1.39,0,0,1,.83,1.08,1.87,1.87,0,0,0,1.34,1.57,1.85,1.85,0,0,0,1,0c.29-.1.58-.18.87-.29C138.91,139.65,138.61,139.65,138.3,139.62ZM179,169.1a1.56,1.56,0,0,1-.77-.17,1.38,1.38,0,0,1-.8-1.12,1.81,1.81,0,0,0-1.4-1.53,2,2,0,0,0-1,.05c-.29.1-.58.18-.88.3.31.05.62.05.93.07a1.75,1.75,0,0,1,.78.14,1.37,1.37,0,0,1,.83,1.08,1.88,1.88,0,0,0,1.34,1.57,1.76,1.76,0,0,0,1,0,8.87,8.87,0,0,0,.87-.29C179.65,169.12,179.35,169.12,179,169.1ZM160.7,113.36a1.65,1.65,0,0,1-.77-.16,1.43,1.43,0,0,1-.8-1.13,1.85,1.85,0,0,0-1.39-1.53,1.89,1.89,0,0,0-1,.06c-.29.1-.59.18-.88.29.32,0,.62,0,.93.07a1.88,1.88,0,0,1,.78.13,1.42,1.42,0,0,1,.83,1.09,1.86,1.86,0,0,0,1.34,1.57,1.76,1.76,0,0,0,1,0c.29-.1.58-.17.87-.3C161.31,113.38,161,113.39,160.7,113.36Z" style="fill:#263238"></path><path d="M178.85,179.71c-1.84-.34-3.71-.49-5.56-.76s-3.53-.6-5.3-.85c-3.62-.5-7.25-1-10.88-1.48-7.26-1-14.5-2.08-21.75-3.14l-6.07-.89c-2.11-.32-4.24-.5-6.35-.81a.08.08,0,0,0,0,.16c1.84.35,3.66.81,5.51,1.13l5.29.89c3.61.61,7.23,1.17,10.85,1.71,7.24,1.09,14.5,2.11,21.77,3,2,.26,4.07.44,6.11.61s4.24.55,6.37.66C179,180,179,179.74,178.85,179.71Z" style="fill:#263238"></path><path d="M168.72,120.52c-3.62-.38-8.16-8.17-9-13.11,0-.34,1.43-3.18,3.06-6.71,1-2.16,2-4.57,2.82-6.85l13.07,8.45a38.42,38.42,0,0,0-4.43,8.25,5.42,5.42,0,0,0-.23,1,1.43,1.43,0,0,1,0,.16C173.66,113.56,172.22,120.88,168.72,120.52Z" style="fill:#ffc4c0"></path><path d="M174,111.52s0,.1,0,.16a10.2,10.2,0,0,1-1.5-.43c-8.19-3.06-6.61-13.85-6-16.83l3.26,2.11,8.91,5.77a38.5,38.5,0,0,0-4.42,8.26A5,5,0,0,0,174,111.52Z" style="fill:#263238"></path><path d="M188.72,76.36s4.29,3.12,4,8.18-2.62,9.87-3.1,10S188.72,76.36,188.72,76.36Z" style="fill:#263238"></path><path d="M167.35,78c-2.56,5-2.51,20.72.63,24.79,4.56,5.91,13.38,8,18.74,2.19,5.19-5.61,4.76-26.12,1.13-30C182.49,69.4,171.13,70.67,167.35,78Z" style="fill:#ffc4c0"></path><path d="M180.58,90.62s-.09,0-.08.09c0,1.06-.12,2.28-1.07,2.63,0,0,0,.06,0,.06C180.6,93.24,180.78,91.62,180.58,90.62Z" style="fill:#263238"></path><path d="M179.63,89.51c-1.7-.13-1.84,3.28-.26,3.41S181.06,89.62,179.63,89.51Z" style="fill:#263238"></path><path d="M186.59,90.66s.09.06.08.1c-.07,1.06,0,2.28,1,2.67,0,0,0,.07,0,.06C186.46,93.28,186.35,91.65,186.59,90.66Z" style="fill:#263238"></path><path d="M187.59,89.6c1.7-.06,1.7,3.36.11,3.41S186.15,89.65,187.59,89.6Z" style="fill:#263238"></path><path d="M178.66,87.15a11,11,0,0,0,1.4-.09,2.17,2.17,0,0,0,1.41-.36.71.71,0,0,0,.13-.87,1.79,1.79,0,0,0-1.69-.67,2.63,2.63,0,0,0-1.77.68A.77.77,0,0,0,178.66,87.15Z" style="fill:#263238"></path><path d="M189.11,87.32a13.08,13.08,0,0,1-1.35-.41,2.26,2.26,0,0,1-1.29-.68.73.73,0,0,1,.08-.88,1.81,1.81,0,0,1,1.8-.26,2.63,2.63,0,0,1,1.57,1.07A.77.77,0,0,1,189.11,87.32Z" style="fill:#263238"></path><path d="M178.81,100c.24.26.48.61.86.66a3,3,0,0,0,1.15-.22,0,0,0,0,1,0,0,1.4,1.4,0,0,1-1.36.52,1.13,1.13,0,0,1-.8-1C178.69,100,178.77,100,178.81,100Z" style="fill:#263238"></path><path d="M180.05,96.86a3.55,3.55,0,0,0,2.34,1.7,4.32,4.32,0,0,0,1.29.12l.25,0,.24,0a.27.27,0,0,0,.22-.23h0a.41.41,0,0,0,0-.11h0v-.09c.05-.82,0-2.06,0-2.06.29.16,1.79.91,1.78.48a54.7,54.7,0,0,0-.95-11,.1.1,0,0,0-.2,0c-.07,3.4.46,6.79.44,10.2a6.34,6.34,0,0,0-1.68-.58c-.12,0,.1,2.4,0,2.76v0a5,5,0,0,1-3.69-1.31C180.07,96.71,180,96.78,180.05,96.86Z" style="fill:#263238"></path><path d="M165.93,93.53c1.88.49,3.78-5.16,4.3-7.32.45-1.91.83-7.91.9-8.32s8.28,5,12.89,3.42,7.56-5.86,7.54-7.82-6-6.68-11-6.73S169,73.34,169,73.34a24.16,24.16,0,0,0,2.11-3.06c-.09-.23-3.28,1.2-3.78,3.53,0,0,.53-2.92.28-3s-2.66,2.54-2,4.39c0,0-2.81,2.64-3,5.41S163.73,93,165.93,93.53Z" style="fill:#263238"></path><path d="M187.29,80.2A15.56,15.56,0,0,1,183,82a10.54,10.54,0,0,1-5.06-.6,15.77,15.77,0,0,1-4.51-2.44c-1.21-.91-2.29-2-3.57-2.83-.32-.2-.66.26-.46.54a16.81,16.81,0,0,0,8.71,5.89,9.64,9.64,0,0,0,9.25-2.27S187.32,80.19,187.29,80.2Z" style="fill:#263238"></path><path d="M168.6,91s-2.67-5.49-5.11-4.61-1,8.45,1.5,9.85a2.71,2.71,0,0,0,3.82-.87Z" style="fill:#ffc4c0"></path><path d="M164,88.58s-.06,0,0,.07c1.73,1,2.43,2.91,2.83,4.79a1.51,1.51,0,0,0-2.15-.76c-.06,0,0,.11,0,.11a1.67,1.67,0,0,1,1.72.86,7.72,7.72,0,0,1,.64,1.61c.06.18.37.14.34-.06v0C167.76,92.8,166.45,89.22,164,88.58Z" style="fill:#263238"></path><path d="M174.35,110.29l-4.86,8.22-9.2-12.75-3.63,3.08s8,19.25,8.15,18.46l4.77-7,4.41,6.06,1.59-13.26Z" style="fill:#ebebeb"></path><path d="M175.15,119.85c.19-2.2.44-4.41.53-6.61,0-.08-.11-.14-.15,0-.76,2-1.44,10.45-1.75,12.44l0,0c-.18-.26-4.13-5.36-4.18-5.3-1,1.08-4.46,6.18-4.72,6.65-1.26-3.06-6.16-14.22-7.75-17.17a.08.08,0,0,0-.14.06c1,3.18,7.49,18.19,7.62,18.17a86.42,86.42,0,0,0,5-7.41c.64,1.08,4.54,6.75,4.6,6.43A69.16,69.16,0,0,0,175.15,119.85Z" style="fill:#263238"></path><path d="M211.47,169.29l27.88,4s17-2.9,21.44-3.09,30.6.59,30.6.59l-11.8-7s-16.56-1.21-29-1.15S211.47,169.29,211.47,169.29Z" style="fill:#ebebeb"></path><path d="M149.17,127.75c4.52,17.87,15.93,44.85,21.45,46.78,13.83,4.81,35,3.67,43.57,1.79,5-1.1.5-27.81-4-27.06-7.09,1.2-27.92,2-30.56,1.92-1.41,0-12.34-16.46-20.45-26.53C150.36,113.7,147,119.05,149.17,127.75Z" style="fill:#ffc4c0"></path><path d="M203.33,151a47.17,47.17,0,0,1,16.29-8.21c4.17-1.17,12.18-1.2,15.28-.77,4.64.63,23.64,6.25,22.38,10.89-1.14,4.19-16.86-2.71-16.86-2.71s16.48,5.56,14.17,10.37-19-5.36-19-5.36,16.79,6.09,13.63,10.67c-2.39,3.45-18-4.89-18-4.89s14.4,5.34,12.1,9c-2.55,4-17.48-2.75-17.48-2.75-.62,1.92-4.34,8.79-11.33,9C213.22,176.31,203.33,151,203.33,151Z" style="fill:#ffc4c0"></path><path d="M234.85,148c2,.58,3.94,1.16,5.84,1.91s3.78,1.58,5.6,2.51a34.26,34.26,0,0,1,6.74,4.29c-3.9-2.72-10.66-5.53-12.56-6.28s-3.76-1.61-5.65-2.36A0,0,0,1,1,234.85,148Z" style="fill:#263238"></path><path d="M232,154.76c2.47.85,4.95,1.61,7.38,2.57s4.63,2.08,7,3.2c.18.08.07.15-.11.07-2.39-1-4.68-1.79-7.08-2.79s-4.77-2.09-7.2-3C231.93,154.8,232,154.74,232,154.76Z" style="fill:#263238"></path><path d="M228.5,160.16a60.38,60.38,0,0,1,11.21,4.73c.18.1,0,.17-.15.09-3.62-1.67-6.68-2.93-11.1-4.68C228.39,160.27,228.42,160.14,228.5,160.16Z" style="fill:#263238"></path><path d="M210.76,181.15l-4-33.19L180.31,150c-6.2-8.64-18.61-25.91-23.8-31.24-6.09-6.25-10.83-2.44-9.21,6.3,3.71,20,17.13,50.08,21.13,53.22C174.15,182.82,210.76,181.15,210.76,181.15Z" style="fill:#455a64"></path><path d="M174.37,150.89a1.57,1.57,0,0,1-.65.44,1.41,1.41,0,0,1-1.36-.24,1.82,1.82,0,0,0-2.74.66c-.14.28-.29.54-.41.83.25-.18.46-.4.69-.6a1.88,1.88,0,0,1,.66-.47,1.38,1.38,0,0,1,1.35.19,1.89,1.89,0,0,0,2.06.16,1.77,1.77,0,0,0,.7-.74c.13-.27.29-.54.41-.83C174.82,150.48,174.61,150.69,174.37,150.89Zm25.29,19.27a1.57,1.57,0,0,1-.65.44,1.41,1.41,0,0,1-1.36-.24,1.82,1.82,0,0,0-2.74.66c-.14.28-.29.54-.41.83.25-.18.46-.4.69-.6a1.88,1.88,0,0,1,.66-.47,1.38,1.38,0,0,1,1.35.19,1.89,1.89,0,0,0,2.06.16,1.77,1.77,0,0,0,.7-.74c.13-.27.29-.54.41-.83C200.11,169.75,199.9,170,199.66,170.16Zm-46.1-45.5a1.63,1.63,0,0,1-.66.43,1.39,1.39,0,0,1-1.36-.23,1.84,1.84,0,0,0-2.07-.09,1.74,1.74,0,0,0-.67.74c-.14.29-.3.54-.41.83.25-.18.46-.4.7-.6a1.9,1.9,0,0,1,.65-.46,1.4,1.4,0,0,1,1.36.18,1.83,1.83,0,0,0,2.05.16,1.71,1.71,0,0,0,.7-.74c.13-.27.29-.53.41-.83C154,124.25,153.79,124.46,153.56,124.66Zm34,54.1c-.1-.29-.17-.6-.29-.88,0,.31,0,.61-.08.92a1.78,1.78,0,0,1-.12.79,1.42,1.42,0,0,1-1.09.83,1.83,1.83,0,0,0-1.3.78l1,.05a1.18,1.18,0,0,1,.37-.09,1.86,1.86,0,0,0,1.53-1.4A1.84,1.84,0,0,0,187.55,178.76ZM155.26,142c-.1-.3-.18-.59-.3-.88-.05.31,0,.62-.07.92a1.62,1.62,0,0,1-.13.79,1.45,1.45,0,0,1-1.09.84,1.85,1.85,0,0,0-1.12.56c.08.25.17.5.25.74a1.37,1.37,0,0,1,1-.57,1.83,1.83,0,0,0,1.53-1.39A2,2,0,0,0,155.26,142Zm36.1,12.65c-.1-.3-.18-.59-.3-.88-.05.31,0,.62-.07.92a1.62,1.62,0,0,1-.13.79,1.45,1.45,0,0,1-1.09.84,1.86,1.86,0,0,0-1.57,1.33,1.76,1.76,0,0,0,0,1c.1.29.17.58.29.88,0-.31,0-.62.07-.93a1.56,1.56,0,0,1,.16-.77,1.4,1.4,0,0,1,1.12-.8,1.83,1.83,0,0,0,1.53-1.39A2,2,0,0,0,191.36,154.65Zm19.35,25.49-.12-.37a5.17,5.17,0,0,0-.18-.51c0,.31,0,.62-.07.92a1.62,1.62,0,0,1-.13.79,1.43,1.43,0,0,1-.12.21l.67,0A2,2,0,0,0,210.71,180.14ZM168.42,133.7a0,0,0,0,1,0,0,1.9,1.9,0,0,0,1.12,1.49C169.18,134.71,168.8,134.2,168.42,133.7Zm-1.22-1.64a2.31,2.31,0,0,0-.43.09c-.29.1-.58.17-.87.29a7.22,7.22,0,0,0,.92.06,1.81,1.81,0,0,1,.78.14l.05,0Zm-5.28,31.23a1.68,1.68,0,0,1-.77-.16,1.4,1.4,0,0,1-.8-1.13,1.85,1.85,0,0,0-1.39-1.53l-.18,0c.12.28.24.55.35.82a1.27,1.27,0,0,1,.48.85,1.86,1.86,0,0,0,1.35,1.57,1.73,1.73,0,0,0,1,0c.29-.1.58-.17.88-.3C162.53,163.31,162.22,163.31,161.92,163.29Zm45.91-6.15a1.76,1.76,0,0,0-.91-.53,1.93,1.93,0,0,0-1,.06c-.29.1-.58.17-.87.3.31,0,.62,0,.92.06a1.72,1.72,0,0,1,.79.14,1.39,1.39,0,0,1,.83,1.08,1.93,1.93,0,0,0,.53,1.09ZM179,169.1a1.56,1.56,0,0,1-.77-.17,1.38,1.38,0,0,1-.8-1.12,1.81,1.81,0,0,0-1.4-1.53,2,2,0,0,0-1,.05c-.29.1-.58.18-.88.3.31.05.62.05.93.07a1.75,1.75,0,0,1,.78.14,1.37,1.37,0,0,1,.83,1.08,1.88,1.88,0,0,0,1.34,1.57,1.76,1.76,0,0,0,1,0,8.87,8.87,0,0,0,.87-.29C179.65,169.12,179.35,169.12,179,169.1Z" style="fill:#263238"></path><path d="M204.85,177.71c-.63-2-1.83-10.57-2.11-12.71s-1.09-10.75-1.37-12.95c0-.12.16-.18.17-.06.31,2.17,1.81,10.74,2.1,12.87s1.4,10.7,1.32,12.83A.06.06,0,0,1,204.85,177.71Z" style="fill:#263238"></path><path d="M190.28,181.77q-4.38-.09-8.75-.44a71.35,71.35,0,0,1-8.71-1.14,13.71,13.71,0,0,1-4.19-1.44,12.63,12.63,0,0,1-2.9-3.39,66.44,66.44,0,0,1-4.11-7.78c-2.47-5.31-4.55-10.78-6.57-16.26s-3.82-11-5.48-16.65q3,8.24,6.08,16.42c2.06,5.46,4.24,10.88,6.6,16.2a76.57,76.57,0,0,0,4,7.76,12.23,12.23,0,0,0,2.66,3.31,13.63,13.63,0,0,0,4,1.44A112.11,112.11,0,0,0,190.28,181.77Z" style="fill:#263238"></path><path d="M151.11,139.43a9.11,9.11,0,0,1-1-1.36,4.84,4.84,0,0,1-.62-1.54c.12.25.28.48.42.71l.42.71A14.65,14.65,0,0,1,151.11,139.43Z" style="fill:#263238"></path><path d="M165.17,129.69c2.77,3.33,5.2,6.93,7.76,10.42l3.77,5.28c.64.88,1.27,1.75,1.93,2.6.32.43.65.86,1,1.26a2.21,2.21,0,0,0,.25.27s.1.09,0,.06,0,0,.07,0h.78c4.31-.18,8.63-.58,12.95-.84s8.64-.6,13-.86h0v0l.09.89-.16-.88,0,0q-6.47.74-12.93,1.33c-4.31.42-8.62.77-13,1-.28,0-.55,0-.84,0a1.1,1.1,0,0,1-.33-.05,1.31,1.31,0,0,1-.27-.2l-.3-.32c-.37-.42-.7-.85-1-1.29-.65-.87-1.28-1.75-1.91-2.64l-3.7-5.33-3.62-5.4C167.6,133.27,166.45,131.43,165.17,129.69Z" style="fill:#263238"></path><path d="M166.44,130.12a9.92,9.92,0,0,1,.86,1.56,6,6,0,0,1,.5,1.72c-.11-.28-.24-.54-.36-.81l-.37-.81A17.25,17.25,0,0,1,166.44,130.12Z" style="fill:#263238"></path></g><g id="freepik--Printer--inject-51"><rect x="371.71" y="335.08" width="57.56" height="92.8" transform="translate(800.99 762.95) rotate(180)" style="fill:#103337"></rect><g style="opacity:0.1"><rect x="371.71" y="335.08" width="57.56" height="92.8" transform="translate(800.99 762.95) rotate(180)"></rect></g><rect x="373.22" y="335.08" width="56.05" height="92.8" transform="translate(802.49 762.95) rotate(180)" style="fill:#103337"></rect><polygon points="429.27 335.08 445.51 335.08 459.88 367.23 456.08 367.23 441.38 343.32 429.27 343.32 429.27 335.08" style="fill:#103337"></polygon><polygon points="382.56 383.21 382.56 351.26 373.22 347.26 373.22 387.21 382.56 383.21" style="opacity:0.1"></polygon><rect x="373.22" y="343.32" width="56.05" height="1.76" transform="translate(802.49 688.41) rotate(180)" style="opacity:0.1"></rect><rect x="389.6" y="294.37" width="51.29" height="40.61" style="fill:#ebebeb"></rect><rect x="389.6" y="294.37" width="51.29" height="40.61" style="fill:#ebebeb"></rect><rect x="370.11" y="294.39" width="19.49" height="40.61" transform="translate(759.86 629.21) rotate(179.97)" style="fill:#c7c7c7"></rect><polygon points="440.9 314.67 389.6 314.69 429.66 315.72 440.9 314.67" style="fill:#c7c7c7"></polygon><polygon points="389.61 330.09 440.9 330.06 400.85 331.13 389.61 330.09" style="fill:#c7c7c7"></polygon><polygon points="440.89 303.31 408.4 303.33 437.28 304.17 440.89 303.31" style="fill:#c7c7c7"></polygon><polygon points="389.61 324.11 422.1 324.1 393.22 324.96 389.61 324.11" style="fill:#c7c7c7"></polygon><polygon points="428.58 298.8 391.94 298.82 398.05 299.33 428.58 298.8" style="fill:#c7c7c7"></polygon><polygon points="435.91 319.02 399.27 319.04 405.37 319.55 435.91 319.02" style="fill:#c7c7c7"></polygon><polygon points="413.37 307.19 389.6 307.21 385.35 308.57 413.37 307.19" style="fill:#ebebeb"></polygon><polygon points="413.37 307.19 389.6 307.21 385.35 308.57 413.37 307.19" style="fill:#ebebeb"></polygon><polygon points="447.44 307.18 423.67 307.19 419.42 308.56 447.44 307.18" style="fill:#dbdbdb"></polygon><polygon points="416.95 325.44 440.72 325.43 444.97 326.8 416.95 325.44" style="fill:#dbdbdb"></polygon><polygon points="389.61 320.82 370.52 320.83 366.27 322.2 389.61 320.82" style="fill:#c7c7c7"></polygon><polygon points="382.94 314.69 368.14 314.7 370.11 313.58 382.94 314.69" style="fill:#c7c7c7"></polygon><rect x="214.94" y="333.76" width="156.77" height="94.12" transform="translate(586.65 761.63) rotate(180)" style="fill:#103337"></rect><rect x="214.94" y="333.76" width="156.77" height="94.12" transform="translate(586.65 761.63) rotate(180)" style="opacity:0.1"></rect><rect x="214.94" y="417.53" width="156.77" height="10.35" transform="translate(586.65 845.4) rotate(180)" style="fill:#103337"></rect><rect x="214.94" y="390.04" width="156.77" height="26.16" transform="translate(586.65 806.25) rotate(180)" style="fill:#103337"></rect><polygon points="291.38 399.39 335.28 399.39 339.28 390.04 287.38 390.04 291.38 399.39" style="opacity:0.1"></polygon><rect x="214.94" y="362.56" width="156.77" height="26.16" transform="translate(586.65 751.28) rotate(180)" style="fill:#103337"></rect><polygon points="291.38 371.9 335.28 371.9 339.28 362.56 287.38 362.56 291.38 371.9" style="opacity:0.1"></polygon><rect x="214.94" y="335.08" width="156.77" height="26.16" transform="translate(586.65 696.32) rotate(180)" style="fill:#103337"></rect><polygon points="291.38 344.42 335.28 344.42 339.28 335.08 287.38 335.08 291.38 344.42" style="opacity:0.1"></polygon><rect x="185.85" y="234.95" width="40.61" height="51.29" transform="translate(-116.18 341.29) rotate(-65.71)" style="fill:#ebebeb"></rect><rect x="185.85" y="234.95" width="40.61" height="51.29" transform="translate(-116.18 341.29) rotate(-65.71)" style="fill:#ebebeb"></rect><rect x="164.15" y="225.73" width="19.49" height="40.61" transform="translate(231.18 541.82) rotate(-155.71)" style="fill:#c7c7c7"></rect><polygon points="229.53 271.14 182.78 250.04 218.86 267.48 229.53 271.14" style="fill:#c7c7c7"></polygon><polygon points="176.45 264.08 223.2 285.18 186.26 269.65 176.45 264.08" style="fill:#c7c7c7"></polygon><polygon points="234.2 260.8 204.59 247.43 230.56 260.09 234.2 260.8" style="fill:#c7c7c7"></polygon><polygon points="178.91 258.63 208.52 272 181.84 260.89 178.91 258.63" style="fill:#c7c7c7"></polygon><polygon points="224.85 251.62 191.45 236.54 196.8 239.52 224.85 251.62" style="fill:#c7c7c7"></polygon><polygon points="223.2 273.06 189.8 257.99 195.15 260.96 223.2 273.06" style="fill:#c7c7c7"></polygon><polygon points="207.53 253 185.86 243.22 181.43 242.72 207.53 253" style="fill:#ebebeb"></polygon><polygon points="207.53 253 185.86 243.22 181.43 242.72 207.53 253" style="fill:#ebebeb"></polygon><polygon points="238.58 267.02 216.91 257.24 212.48 256.74 238.58 267.02" style="fill:#dbdbdb"></polygon><polygon points="203.27 271.1 224.94 280.88 228.25 283.88 203.27 271.1" style="fill:#dbdbdb"></polygon><polygon points="180.26 255.63 162.86 247.78 158.43 247.28 180.26 255.63" style="fill:#c7c7c7"></polygon><polygon points="176.71 247.3 163.22 241.21 165.47 241.01 176.71 247.3" style="fill:#c7c7c7"></polygon><path d="M214.94,265.71H371.71a0,0,0,0,1,0,0v68a0,0,0,0,1,0,0H222.54a7.6,7.6,0,0,1-7.6-7.6V265.71A0,0,0,0,1,214.94,265.71Z" transform="translate(586.65 599.47) rotate(180)" style="fill:#103337"></path><rect x="352.06" y="277.51" width="19.65" height="2.64" transform="translate(723.77 557.66) rotate(180)" style="opacity:0.1"></rect><rect x="352.06" y="282.15" width="19.65" height="2.64" transform="translate(723.77 566.95) rotate(180)" style="opacity:0.1"></rect><rect x="352.06" y="286.8" width="19.65" height="2.64" transform="translate(723.77 576.24) rotate(180)" style="opacity:0.1"></rect><rect x="352.06" y="291.44" width="19.65" height="2.64" transform="translate(723.77 585.53) rotate(180)" style="opacity:0.1"></rect><rect x="352.06" y="296.09" width="19.65" height="2.64" transform="translate(723.77 594.82) rotate(180)" style="opacity:0.1"></rect><rect x="352.06" y="300.74" width="19.65" height="2.64" transform="translate(723.77 604.11) rotate(180)" style="opacity:0.1"></rect><rect x="352.06" y="305.38" width="19.65" height="2.64" transform="translate(723.77 613.4) rotate(180)" style="opacity:0.1"></rect><rect x="352.06" y="310.03" width="19.65" height="2.64" transform="translate(723.77 622.69) rotate(180)" style="opacity:0.1"></rect><rect x="352.06" y="314.67" width="19.65" height="2.64" transform="translate(723.77 631.99) rotate(180)" style="opacity:0.1"></rect><rect x="352.06" y="319.32" width="19.65" height="2.64" transform="translate(723.77 641.28) rotate(180)" style="opacity:0.1"></rect><rect x="227.05" y="265.71" width="41.17" height="48.96" transform="translate(495.28 580.38) rotate(180)" style="opacity:0.1"></rect><polygon points="252.15 333.76 293.33 333.76 268.23 314.67 227.05 314.67 252.15 333.76" style="opacity:0.1"></polygon><rect x="214.94" y="277.51" width="19.65" height="2.64" transform="translate(449.54 557.66) rotate(180)" style="opacity:0.1"></rect><rect x="214.94" y="282.15" width="19.65" height="2.64" transform="translate(449.54 566.95) rotate(180)" style="opacity:0.1"></rect><rect x="214.94" y="286.8" width="19.65" height="2.64" transform="translate(449.54 576.24) rotate(180)" style="opacity:0.1"></rect><rect x="214.94" y="291.44" width="19.65" height="2.64" transform="translate(449.54 585.53) rotate(180)" style="opacity:0.1"></rect><rect x="214.94" y="296.09" width="19.65" height="2.64" transform="translate(449.54 594.82) rotate(180)" style="opacity:0.1"></rect><rect x="214.94" y="300.74" width="19.65" height="2.64" transform="translate(449.54 604.11) rotate(180)" style="opacity:0.1"></rect><rect x="214.94" y="305.38" width="19.65" height="2.64" transform="translate(449.54 613.4) rotate(180)" style="opacity:0.1"></rect><rect x="214.94" y="310.03" width="19.65" height="2.64" transform="translate(449.54 622.69) rotate(180)" style="opacity:0.1"></rect><rect x="214.94" y="314.67" width="19.65" height="2.64" transform="translate(449.54 631.99) rotate(180)" style="opacity:0.1"></rect><rect x="214.94" y="319.32" width="19.65" height="2.64" transform="translate(449.54 641.28) rotate(180)" style="opacity:0.1"></rect><polygon points="195.81 283.64 214.94 298.9 214.94 277.68 195.81 277.68 195.81 283.64" style="fill:#103337"></polygon><polygon points="153.51 264.72 195.81 283.64 195.81 277.68 153.51 258.75 153.51 264.72" style="fill:#103337"></polygon><rect x="349.25" y="427.87" width="17.61" height="5" transform="translate(716.12 860.74) rotate(180)" style="fill:#263238"></rect><circle cx="358.06" cy="437.08" r="5.98" style="fill:#263238"></circle><rect x="392.03" y="427.87" width="17.61" height="5" transform="translate(801.68 860.74) rotate(180)" style="fill:#263238"></rect><path d="M394.86,437.08a6,6,0,1,0,6-6A6,6,0,0,0,394.86,437.08Z" style="fill:#263238"></path><rect x="284.52" y="427.87" width="17.61" height="5" transform="translate(586.65 860.74) rotate(180)" style="fill:#263238"></rect><circle cx="293.33" cy="437.08" r="5.98" style="fill:#263238"></circle><rect x="219.79" y="427.87" width="17.61" height="5" transform="translate(457.19 860.74) rotate(180)" style="fill:#263238"></rect><circle cx="228.59" cy="437.08" r="5.98" style="fill:#263238"></circle><rect x="214.94" y="207.91" width="143.12" height="57.8" transform="translate(573 473.62) rotate(180)" style="fill:#103337"></rect><rect x="214.94" y="207.91" width="143.12" height="57.8" transform="translate(573 473.62) rotate(180)" style="opacity:0.4"></rect><polygon points="227.01 123.31 315.79 162.4 320.38 147.91 233.33 110.64 227.01 123.31" style="fill:#103337"></polygon><path d="M222.94,122.29l88.67,39,1.46-4.6L229.92,120a5.49,5.49,0,0,0-6.69,1.93Z" style="fill:#103337"></path><g style="opacity:0.1"><path d="M222.94,122.29l88.67,39,1.46-4.6L229.92,120a5.49,5.49,0,0,0-6.69,1.93Z"></path></g><path d="M319.87,131.43l45,20.48a7.35,7.35,0,0,1,6.8,7.34v28.63l-64-27.88Z" style="fill:#103337"></path><path d="M214.94,187.88H371.71V174.22H226a7.8,7.8,0,0,0-7.13,4.67Z" style="fill:#103337"></path><polygon points="346.83 248.76 310.61 248.76 269.33 264.5 346.83 264.5 346.83 248.76" style="fill:#103337"></polygon><rect x="214.94" y="207.91" width="53.28" height="56.59" transform="translate(483.17 472.41) rotate(180)" style="fill:#103337"></rect><rect x="227.05" y="207.91" width="41.17" height="56.59" transform="translate(495.28 472.41) rotate(180)" style="opacity:0.1"></rect><path d="M221.36,189H371.71a0,0,0,0,1,0,0v18.94a0,0,0,0,1,0,0H214.94a0,0,0,0,1,0,0V195.39A6.42,6.42,0,0,1,221.36,189Z" transform="translate(586.65 396.89) rotate(180)" style="fill:#103337"></path><path d="M221.36,189H371.71a0,0,0,0,1,0,0v18.94a0,0,0,0,1,0,0H214.94a0,0,0,0,1,0,0V195.39A6.42,6.42,0,0,1,221.36,189Z" transform="translate(586.65 396.89) rotate(180)" style="opacity:0.1"></path><path d="M221.79,189h57.86a6.85,6.85,0,0,1,6.85,6.85V218.7a0,0,0,0,1,0,0H214.94a0,0,0,0,1,0,0V195.82A6.85,6.85,0,0,1,221.79,189Z" transform="translate(501.44 407.68) rotate(180)" style="fill:#103337"></path><rect x="218.02" y="192.17" width="36.22" height="20.81" style="fill:#263238"></rect><polygon points="229.09 192.17 218.02 201.43 218.02 197.25 224.09 192.17 229.09 192.17" style="fill:#37474f"></polygon><polygon points="254.24 209.02 254.24 212.98 249.5 212.98 254.24 209.02" style="fill:#37474f"></polygon><polygon points="237.73 192.17 218.02 208.66 218.02 207.17 235.95 192.17 237.73 192.17" style="fill:#37474f"></polygon><polygon points="254.24 197.68 254.24 199.16 237.73 212.98 235.96 212.98 254.24 197.68" style="fill:#37474f"></polygon><polygon points="222.51 192.17 218.02 195.93 218.02 195.19 221.63 192.17 222.51 192.17" style="fill:#37474f"></polygon><polygon points="254.24 193.73 254.24 194.47 232.12 212.98 231.24 212.98 254.24 193.73" style="fill:#37474f"></polygon><polygon points="254.24 207 254.24 207.74 247.98 212.98 247.09 212.98 254.24 207" style="fill:#37474f"></polygon><polygon points="249.53 192.17 224.66 212.98 223.78 212.98 248.65 192.17 249.53 192.17" style="fill:#37474f"></polygon><rect x="230.48" y="202.86" width="0.95" height="3.49" style="fill:#fff"></rect><rect x="230.48" y="198.77" width="0.95" height="3.49" style="fill:#fff"></rect><rect x="232.48" y="196.25" width="0.95" height="3.49" transform="translate(430.95 -34.97) rotate(90)" style="fill:#fff"></rect><rect x="232.48" y="205.41" width="0.95" height="3.49" transform="translate(440.11 -25.81) rotate(90)" style="fill:#fff"></rect><rect x="234.3" y="202.86" width="0.95" height="3.49" style="fill:#fff"></rect><rect x="234.3" y="198.77" width="0.95" height="3.49" style="fill:#fff"></rect><rect x="239.01" y="196.25" width="0.95" height="3.49" transform="translate(437.48 -41.49) rotate(90)" style="fill:#fff"></rect><rect x="239.01" y="200.78" width="0.95" height="3.49" transform="translate(442.01 -36.96) rotate(90)" style="fill:#fff"></rect><rect x="239.01" y="205.41" width="0.95" height="3.49" transform="translate(446.64 -32.33) rotate(90)" style="fill:#fff"></rect><rect x="240.83" y="202.86" width="0.95" height="3.49" style="fill:#fff"></rect><rect x="240.83" y="198.77" width="0.95" height="3.49" style="fill:#fff"></rect><rect x="257.62" y="192.17" width="4.29" height="2.94" style="fill:#263238"></rect><rect x="263.57" y="192.17" width="4.29" height="2.94" style="fill:#263238"></rect><rect x="269.51" y="192.17" width="4.29" height="2.94" style="fill:#263238"></rect><rect x="257.62" y="196.55" width="4.29" height="2.94" style="fill:#263238"></rect><rect x="263.57" y="196.55" width="4.29" height="2.94" style="fill:#263238"></rect><rect x="269.51" y="196.55" width="4.29" height="2.94" style="fill:#263238"></rect><rect x="257.62" y="200.92" width="4.29" height="2.95" style="fill:#263238"></rect><rect x="263.57" y="200.92" width="4.29" height="2.95" style="fill:#263238"></rect><rect x="269.51" y="200.92" width="4.29" height="2.95" style="fill:#263238"></rect><rect x="257.62" y="205.3" width="4.29" height="2.94" style="fill:#263238"></rect><rect x="263.57" y="205.3" width="4.29" height="2.94" style="fill:#263238"></rect><rect x="269.51" y="205.3" width="4.29" height="2.94" style="fill:#263238"></rect><rect x="263.57" y="209.67" width="4.29" height="2.95" style="fill:#263238"></rect><rect x="276.15" y="192.17" width="6.61" height="2.94" style="fill:#455a64"></rect><rect x="276.15" y="196.55" width="6.61" height="2.94" style="fill:#fff"></rect></g><g id="freepik--speech-bubble--inject-51"><path d="M252.69,73.06a23.35,23.35,0,0,1-39,14.78L202,89.56l5.85-10.11a23.37,23.37,0,1,1,44.88-6.39Z" style="fill:#fff"></path><path d="M252.69,73.06A23.62,23.62,0,0,1,248,84.91a29,29,0,0,1-2.12,2.44,25.87,25.87,0,0,1-2.47,2.08,23.66,23.66,0,0,1-11.93,4.64,23.37,23.37,0,0,1-3.24.07A22,22,0,0,1,225,93.8a23.69,23.69,0,0,1-11.56-5.71l.28.09L202,90l-.85.13.43-.75,5.81-10.12,0,.4a23.64,23.64,0,0,1,29.3-31.39,24,24,0,0,1,9,5.52A23.51,23.51,0,0,1,252.69,73.06Zm0,0a23.43,23.43,0,0,0-7.09-19.19,23.78,23.78,0,0,0-9-5.32,23.34,23.34,0,0,0-10.4-.78,23,23,0,0,0-9.65,3.82,24.14,24.14,0,0,0-7,7.62,23,23,0,0,0-1.32,20.07l.08.21-.11.19-5.88,10.09-.42-.62,11.7-1.64.16,0,.12.11a23,23,0,0,0,11.19,5.76,21,21,0,0,0,3.17.39,22.79,22.79,0,0,0,3.2,0,23.17,23.17,0,0,0,6.24-1.37,21.6,21.6,0,0,0,5.63-3,20.94,20.94,0,0,0,4.6-4.48A23.37,23.37,0,0,0,252.69,73.06Z" style="fill:#263238"></path><polygon points="226.72 83.96 216.73 73.86 220.09 70.54 225.92 76.44 238.03 57.45 242 59.99 226.72 83.96" style="fill:#103337"></polygon></g></svg>
